<svg width="314" height="83" viewBox="0 0 314 83" fill="none" xmlns="http://www.w3.org/2000/svg">
<rect x="0.839844" y="0.5" width="312.136" height="82" rx="4.5" stroke="#202020"/>
<path d="M30.2419 29.76C29.3819 30.48 28.1419 30.82 26.5619 30.82H23.5019V36H20.5219V21.6H26.7819C28.2219 21.6 29.3819 21.98 30.2419 22.72C31.1019 23.46 31.5219 24.62 31.5219 26.16C31.5219 27.86 31.1019 29.06 30.2419 29.76ZM27.9619 24.58C27.5619 24.26 27.0219 24.1 26.3019 24.1H23.5019V28.34H26.3019C27.0219 28.34 27.5619 28.16 27.9619 27.82C28.3619 27.48 28.5419 26.94 28.5419 26.18C28.5419 25.44 28.3619 24.9 27.9619 24.58ZM36.8217 27.22H43.8017V29.72H36.8217V33.42H44.7817V36H33.8817V21.6H44.4217V24.16H36.8217V27.22ZM56.5816 21.98C57.1216 22.2 57.5816 22.54 57.9616 22.98C58.2816 23.34 58.5216 23.76 58.7016 24.2C58.9016 24.64 58.9816 25.14 58.9816 25.7C58.9816 26.4 58.8016 27.06 58.4616 27.72C58.1216 28.38 57.5416 28.86 56.7616 29.12C57.4216 29.38 57.8816 29.76 58.1616 30.26C58.4416 30.76 58.5816 31.5 58.5816 32.52V33.48C58.5816 34.14 58.6016 34.58 58.6616 34.82C58.7416 35.18 58.9216 35.46 59.2016 35.64V36H55.9016C55.8016 35.68 55.7416 35.42 55.7016 35.22C55.6216 34.82 55.5816 34.4 55.5816 33.98L55.5616 32.66C55.5416 31.74 55.3816 31.12 55.0616 30.82C54.7416 30.52 54.1216 30.36 53.2416 30.36H50.1416V36H47.2016V21.6H54.2616C55.2616 21.62 56.0416 21.76 56.5816 21.98ZM53.5416 27.98C54.2216 27.98 54.7216 27.9 55.0616 27.74C55.6616 27.46 55.9616 26.92 55.9616 26.12C55.9616 25.24 55.6616 24.66 55.1016 24.36C54.7616 24.2 54.2816 24.1 53.6216 24.1H50.1416V27.98H53.5416ZM63.7352 31.56C63.8152 32.22 64.0152 32.7 64.2752 33.04C64.7552 33.62 65.5952 33.92 66.7752 33.92C67.4952 33.92 68.0752 33.84 68.5152 33.68C69.3552 33.38 69.7752 32.82 69.7752 32.02C69.7752 31.54 69.5752 31.18 69.1552 30.92C68.7352 30.66 68.0752 30.44 67.1752 30.24L65.6552 29.9C64.1752 29.56 63.1352 29.2 62.5552 28.8C61.5952 28.12 61.0952 27.1 61.0952 25.68C61.0952 24.38 61.5752 23.32 62.5152 22.46C63.4352 21.62 64.8152 21.18 66.6352 21.18C68.1552 21.18 69.4552 21.58 70.5152 22.38C71.5952 23.2 72.1552 24.36 72.1952 25.9H69.3152C69.2552 25.02 68.8752 24.4 68.1752 24.04C67.7152 23.8 67.1152 23.68 66.4352 23.68C65.6552 23.68 65.0352 23.84 64.5752 24.16C64.1152 24.46 63.8752 24.9 63.8752 25.46C63.8752 25.98 64.1152 26.36 64.5752 26.62C64.8552 26.78 65.4752 26.98 66.4352 27.22L68.9152 27.8C70.0152 28.08 70.8352 28.42 71.3752 28.86C72.2352 29.52 72.6752 30.52 72.6752 31.8C72.6752 33.1 72.1752 34.2 71.1752 35.06C70.1552 35.94 68.7352 36.38 66.8952 36.38C65.0352 36.38 63.5552 35.94 62.4752 35.08C61.3952 34.24 60.8752 33.06 60.8752 31.56H63.7352ZM85.975 34.72C84.895 35.84 83.335 36.4 81.275 36.4C79.215 36.4 77.635 35.84 76.555 34.72C75.095 33.34 74.355 31.38 74.355 28.78C74.355 26.14 75.095 24.16 76.555 22.84C77.635 21.72 79.215 21.16 81.275 21.16C83.335 21.16 84.895 21.72 85.975 22.84C87.435 24.16 88.155 26.14 88.155 28.78C88.155 31.38 87.435 33.34 85.975 34.72ZM84.115 32.54C84.795 31.66 85.155 30.4 85.155 28.78C85.155 27.18 84.795 25.92 84.115 25.04C83.395 24.16 82.455 23.72 81.275 23.72C80.075 23.72 79.135 24.16 78.415 25.04C77.695 25.92 77.355 27.16 77.355 28.78C77.355 30.4 77.695 31.66 78.415 32.54C79.135 33.42 80.075 33.86 81.275 33.86C82.455 33.86 83.395 33.42 84.115 32.54ZM99.3014 31.66V21.6H102.101V36H99.1014L93.2214 25.78V36H90.4214V21.6H93.5614L99.3014 31.66ZM117.515 36H114.255L113.335 33.04H108.015L107.035 36H103.875L109.015 21.6H112.415L117.515 36ZM110.695 24.9L108.835 30.56H112.495L110.695 24.9ZM122.349 33.42H129.469V36H119.329V21.6H122.349V33.42ZM131.315 21.6H134.315V36H131.315V21.6ZM136.302 24.16V21.6H147.282V24.02L139.762 33.46H147.302V36H136.102V33.46L143.542 24.16H136.302ZM152.388 27.22H159.368V29.72H152.388V33.42H160.348V36H149.448V21.6H159.988V24.16H152.388V27.22ZM171.128 21.92C172.128 22.26 172.948 22.86 173.568 23.74C174.068 24.46 174.408 25.24 174.588 26.06C174.788 26.9 174.868 27.7 174.868 28.46C174.868 30.36 174.488 31.98 173.708 33.32C172.668 35.1 171.068 36 168.888 36H162.688V21.6H168.888C169.788 21.62 170.528 21.72 171.128 21.92ZM168.388 33.5C169.808 33.5 170.788 32.8 171.348 31.4C171.648 30.62 171.808 29.72 171.808 28.66C171.808 27.2 171.588 26.06 171.128 25.28C170.668 24.5 169.748 24.1 168.388 24.1H165.608V33.5H168.388ZM193.804 36H190.544L189.624 33.04H184.304L183.324 36H180.164L185.304 21.6H188.704L193.804 36ZM186.984 24.9L185.124 30.56H188.784L186.984 24.9ZM205.418 29.76C204.558 30.48 203.318 30.82 201.738 30.82H198.678V36H195.698V21.6H201.958C203.398 21.6 204.558 21.98 205.418 22.72C206.278 23.46 206.698 24.62 206.698 26.16C206.698 27.86 206.278 29.06 205.418 29.76ZM203.138 24.58C202.738 24.26 202.198 24.1 201.478 24.1H198.678V28.34H201.478C202.198 28.34 202.738 28.16 203.138 27.82C203.538 27.48 203.718 26.94 203.718 26.18C203.718 25.44 203.538 24.9 203.138 24.58ZM218.758 29.76C217.898 30.48 216.658 30.82 215.078 30.82H212.018V36H209.038V21.6H215.298C216.738 21.6 217.898 21.98 218.758 22.72C219.618 23.46 220.038 24.62 220.038 26.16C220.038 27.86 219.618 29.06 218.758 29.76ZM216.478 24.58C216.078 24.26 215.538 24.1 214.818 24.1H212.018V28.34H214.818C215.538 28.34 216.078 28.16 216.478 27.82C216.878 27.48 217.058 26.94 217.058 26.18C217.058 25.44 216.878 24.9 216.478 24.58ZM231.757 21.98C232.297 22.2 232.757 22.54 233.137 22.98C233.457 23.34 233.697 23.76 233.877 24.2C234.077 24.64 234.157 25.14 234.157 25.7C234.157 26.4 233.977 27.06 233.637 27.72C233.297 28.38 232.717 28.86 231.937 29.12C232.597 29.38 233.057 29.76 233.337 30.26C233.617 30.76 233.757 31.5 233.757 32.52V33.48C233.757 34.14 233.777 34.58 233.837 34.82C233.917 35.18 234.097 35.46 234.377 35.64V36H231.077C230.977 35.68 230.917 35.42 230.877 35.22C230.797 34.82 230.757 34.4 230.757 33.98L230.737 32.66C230.717 31.74 230.557 31.12 230.237 30.82C229.917 30.52 229.297 30.36 228.417 30.36H225.317V36H222.377V21.6H229.437C230.437 21.62 231.217 21.76 231.757 21.98ZM228.717 27.98C229.397 27.98 229.897 27.9 230.237 27.74C230.837 27.46 231.137 26.92 231.137 26.12C231.137 25.24 230.837 24.66 230.277 24.36C229.937 24.2 229.457 24.1 228.797 24.1H225.317V27.98H228.717ZM247.811 34.72C246.731 35.84 245.171 36.4 243.111 36.4C241.051 36.4 239.471 35.84 238.391 34.72C236.931 33.34 236.191 31.38 236.191 28.78C236.191 26.14 236.931 24.16 238.391 22.84C239.471 21.72 241.051 21.16 243.111 21.16C245.171 21.16 246.731 21.72 247.811 22.84C249.271 24.16 249.991 26.14 249.991 28.78C249.991 31.38 249.271 33.34 247.811 34.72ZM245.951 32.54C246.631 31.66 246.991 30.4 246.991 28.78C246.991 27.18 246.631 25.92 245.951 25.04C245.231 24.16 244.291 23.72 243.111 23.72C241.911 23.72 240.971 24.16 240.251 25.04C239.531 25.92 239.191 27.16 239.191 28.78C239.191 30.4 239.531 31.66 240.251 32.54C240.971 33.42 241.911 33.86 243.111 33.86C244.291 33.86 245.231 33.42 245.951 32.54ZM264.917 36H261.657L260.737 33.04H255.417L254.437 36H251.277L256.417 21.6H259.817L264.917 36ZM258.097 24.9L256.237 30.56H259.897L258.097 24.9ZM268.131 23.1C269.311 21.92 270.791 21.34 272.611 21.34C275.031 21.34 276.791 22.12 277.911 23.72C278.531 24.6 278.871 25.5 278.911 26.4H275.911C275.711 25.7 275.451 25.18 275.151 24.84C274.611 24.22 273.791 23.9 272.711 23.9C271.631 23.9 270.771 24.34 270.131 25.22C269.491 26.1 269.191 27.36 269.191 28.96C269.191 30.58 269.511 31.8 270.191 32.6C270.851 33.4 271.711 33.8 272.731 33.8C273.791 33.8 274.591 33.46 275.151 32.76C275.451 32.4 275.691 31.84 275.911 31.1H278.891C278.611 32.66 277.951 33.94 276.891 34.92C275.811 35.92 274.431 36.4 272.771 36.4C270.691 36.4 269.071 35.74 267.891 34.4C266.711 33.08 266.111 31.24 266.111 28.92C266.111 26.42 266.791 24.46 268.131 23.1ZM284.125 21.6V27.1H289.745V21.6H292.745V36H289.745V29.58H284.125V36H281.145V21.6H284.125ZM66.1763 58H64.8163V44.88H56.5363V58H55.1763V43.72H66.1763V58ZM72.963 58.28C72.143 58.28 71.423 58.14 70.843 57.84C70.263 57.56 69.783 57.16 69.403 56.66C69.023 56.16 68.763 55.6 68.583 54.94C68.403 54.28 68.303 53.58 68.303 52.84C68.303 52.16 68.403 51.5 68.583 50.84C68.763 50.18 69.023 49.6 69.403 49.08C69.783 48.58 70.263 48.16 70.843 47.84C71.423 47.54 72.143 47.38 72.963 47.38C73.783 47.38 74.503 47.54 75.083 47.88C75.663 48.22 76.143 48.64 76.523 49.18C76.883 49.72 77.143 50.34 77.303 51.04C77.463 51.74 77.523 52.46 77.503 53.18H69.563C69.563 53.64 69.623 54.12 69.763 54.6C69.883 55.08 70.083 55.52 70.363 55.9C70.643 56.28 71.003 56.6 71.423 56.86C71.843 57.12 72.363 57.24 72.963 57.24C73.883 57.24 74.603 57 75.123 56.52C75.643 56.04 76.003 55.4 76.203 54.6H77.463C77.203 55.78 76.703 56.68 76.003 57.32C75.283 57.96 74.263 58.28 72.963 58.28ZM76.243 52.12C76.223 51.64 76.143 51.18 76.003 50.74C75.843 50.3 75.623 49.9 75.343 49.56C75.063 49.22 74.723 48.96 74.323 48.74C73.923 48.54 73.463 48.44 72.963 48.44C72.443 48.44 71.983 48.54 71.583 48.74C71.183 48.96 70.843 49.22 70.563 49.56C70.283 49.9 70.063 50.3 69.903 50.74C69.723 51.2 69.623 51.66 69.563 52.12H76.243ZM80.3541 49.64H80.3941C80.6941 48.92 81.1741 48.36 81.8341 47.96C82.4941 47.58 83.2341 47.38 84.0741 47.38C84.8541 47.38 85.5541 47.52 86.1341 47.82C86.7141 48.12 87.1941 48.5 87.5741 49C87.9541 49.5 88.2541 50.08 88.4341 50.74C88.6141 51.4 88.7141 52.1 88.7141 52.84C88.7141 53.58 88.6141 54.28 88.4341 54.94C88.2541 55.6 87.9541 56.16 87.5741 56.66C87.1941 57.16 86.7141 57.56 86.1341 57.84C85.5541 58.14 84.8541 58.28 84.0741 58.28C83.6941 58.28 83.3141 58.24 82.9541 58.14C82.5741 58.04 82.2341 57.9 81.9141 57.72C81.5941 57.54 81.3141 57.3 81.0741 57.02C80.8141 56.74 80.6341 56.42 80.4941 56.04H80.4541V61.8H79.1941V47.68H80.3541V49.64ZM84.0741 57.24C84.6741 57.24 85.1941 57.1 85.6141 56.84C86.0341 56.58 86.3941 56.26 86.6741 55.84C86.9341 55.42 87.1341 54.96 87.2741 54.42C87.3941 53.9 87.4541 53.38 87.4541 52.84C87.4541 52.3 87.3941 51.78 87.2741 51.24C87.1341 50.72 86.9341 50.26 86.6741 49.84C86.3941 49.42 86.0341 49.08 85.6141 48.82C85.1941 48.56 84.6741 48.44 84.0741 48.44C83.3741 48.44 82.7941 48.56 82.3341 48.8C81.8741 49.04 81.4941 49.36 81.2141 49.76C80.9341 50.16 80.7341 50.62 80.6341 51.16C80.5141 51.7 80.4541 52.26 80.4541 52.84C80.4541 53.38 80.5141 53.9 80.6541 54.42C80.7741 54.96 80.9741 55.42 81.2741 55.84C81.5541 56.26 81.9341 56.58 82.3941 56.84C82.8541 57.1 83.4141 57.24 84.0741 57.24ZM95.0385 58.28C94.2585 58.28 93.5585 58.14 92.9585 57.84C92.3385 57.56 91.8385 57.18 91.4185 56.68C90.9985 56.18 90.6985 55.6 90.4785 54.94C90.2585 54.28 90.1585 53.58 90.1585 52.84C90.1585 52.1 90.2585 51.4 90.4785 50.74C90.6985 50.08 90.9985 49.5 91.4185 49C91.8385 48.5 92.3385 48.12 92.9585 47.82C93.5585 47.52 94.2585 47.38 95.0385 47.38C96.1385 47.38 97.0785 47.68 97.8585 48.26C98.6185 48.84 99.0785 49.74 99.2185 50.92H97.9585C97.7785 50.14 97.4585 49.54 96.9985 49.1C96.5385 48.66 95.8785 48.44 95.0385 48.44C94.4385 48.44 93.9185 48.56 93.4585 48.82C92.9985 49.08 92.6385 49.4 92.3385 49.82C92.0385 50.24 91.7985 50.7 91.6585 51.22C91.4985 51.76 91.4185 52.3 91.4185 52.84C91.4185 53.38 91.4985 53.92 91.6585 54.44C91.7985 54.98 92.0385 55.44 92.3385 55.86C92.6385 56.28 92.9985 56.6 93.4585 56.86C93.9185 57.12 94.4385 57.24 95.0385 57.24C95.4185 57.24 95.7985 57.16 96.1385 57.02C96.4785 56.88 96.7985 56.66 97.0585 56.4C97.3185 56.14 97.5385 55.84 97.7185 55.48C97.8985 55.12 97.9985 54.72 98.0385 54.3H99.2985C99.1185 55.56 98.6585 56.52 97.9185 57.22C97.1785 57.92 96.2185 58.28 95.0385 58.28ZM105.41 58.28C104.63 58.28 103.93 58.14 103.33 57.84C102.71 57.56 102.21 57.18 101.79 56.68C101.37 56.18 101.07 55.6 100.85 54.94C100.63 54.28 100.53 53.58 100.53 52.84C100.53 52.1 100.63 51.4 100.85 50.74C101.07 50.08 101.37 49.5 101.79 49C102.21 48.5 102.71 48.12 103.33 47.82C103.93 47.52 104.63 47.38 105.41 47.38C106.19 47.38 106.89 47.52 107.51 47.82C108.11 48.12 108.61 48.5 109.03 49C109.45 49.5 109.75 50.08 109.97 50.74C110.19 51.4 110.29 52.1 110.29 52.84C110.29 53.58 110.19 54.28 109.97 54.94C109.75 55.6 109.45 56.18 109.03 56.68C108.61 57.18 108.11 57.56 107.51 57.84C106.89 58.14 106.19 58.28 105.41 58.28ZM105.41 57.24C106.01 57.24 106.53 57.12 106.99 56.86C107.45 56.6 107.83 56.28 108.13 55.86C108.43 55.44 108.65 54.98 108.81 54.44C108.95 53.92 109.03 53.38 109.03 52.84C109.03 52.3 108.95 51.76 108.81 51.22C108.65 50.7 108.43 50.24 108.13 49.82C107.83 49.4 107.45 49.08 106.99 48.82C106.53 48.56 106.01 48.44 105.41 48.44C104.81 48.44 104.29 48.56 103.83 48.82C103.37 49.08 103.01 49.4 102.71 49.82C102.41 50.24 102.17 50.7 102.03 51.22C101.87 51.76 101.79 52.3 101.79 52.84C101.79 53.38 101.87 53.92 102.03 54.44C102.17 54.98 102.41 55.44 102.71 55.86C103.01 56.28 103.37 56.6 103.83 56.86C104.29 57.12 104.81 57.24 105.41 57.24ZM113.403 52.06H119.263V47.68H120.523V58H119.263V53.12H113.403V58H112.143V47.68H113.403V52.06ZM125.805 58.28C125.325 58.28 124.885 58.22 124.465 58.12C124.045 58 123.665 57.82 123.365 57.56C123.045 57.32 122.805 57 122.625 56.62C122.445 56.24 122.345 55.8 122.345 55.28C122.345 54.56 122.505 54 122.825 53.58C123.145 53.18 123.565 52.88 124.105 52.66C124.625 52.44 125.225 52.3 125.885 52.2L127.885 51.96C128.145 51.94 128.365 51.9 128.585 51.86C128.785 51.82 128.945 51.74 129.085 51.64C129.225 51.54 129.325 51.42 129.405 51.24C129.465 51.06 129.505 50.84 129.505 50.56C129.505 50.14 129.445 49.78 129.305 49.5C129.165 49.24 128.965 49.02 128.725 48.86C128.465 48.7 128.185 48.58 127.865 48.52C127.525 48.46 127.185 48.44 126.805 48.44C126.005 48.44 125.345 48.62 124.845 49C124.345 49.38 124.065 50 124.045 50.84H122.785C122.865 49.62 123.285 48.74 124.045 48.2C124.785 47.66 125.765 47.38 126.965 47.38C127.425 47.38 127.865 47.42 128.325 47.5C128.785 47.6 129.185 47.76 129.545 48C129.905 48.24 130.205 48.58 130.425 49C130.645 49.44 130.765 50 130.765 50.7V56.18C130.765 56.68 131.005 56.94 131.505 56.94C131.665 56.94 131.805 56.92 131.905 56.86V57.92L131.525 57.98C131.405 58 131.265 58 131.085 58C130.765 58 130.505 57.96 130.325 57.86C130.125 57.78 129.965 57.66 129.865 57.5C129.765 57.34 129.685 57.14 129.665 56.92C129.625 56.7 129.605 56.46 129.605 56.2H129.565C129.345 56.54 129.105 56.82 128.885 57.08C128.645 57.34 128.385 57.56 128.105 57.74C127.805 57.92 127.485 58.04 127.105 58.14C126.725 58.24 126.305 58.28 125.805 58.28ZM125.905 57.24C126.385 57.24 126.845 57.16 127.285 57.02C127.725 56.88 128.105 56.66 128.445 56.38C128.765 56.1 129.025 55.76 129.225 55.36C129.405 54.96 129.505 54.5 129.505 54V52.36H129.465C129.385 52.5 129.225 52.62 129.005 52.68C128.785 52.74 128.585 52.8 128.405 52.82C127.865 52.92 127.325 53 126.765 53.06C126.185 53.14 125.665 53.26 125.205 53.4C124.745 53.54 124.365 53.76 124.065 54.04C123.765 54.32 123.605 54.7 123.605 55.2C123.605 55.52 123.665 55.8 123.805 56.04C123.925 56.3 124.085 56.5 124.305 56.68C124.525 56.86 124.765 57 125.045 57.1C125.305 57.2 125.605 57.24 125.905 57.24ZM133.156 58.1C133.096 58.1 133.016 58.1 132.916 58.08L132.636 58.04C132.536 58.02 132.436 58.02 132.356 57.98C132.256 57.96 132.196 57.96 132.156 57.94V56.84C132.256 56.88 132.416 56.92 132.636 56.94C132.856 56.96 133.036 56.98 133.176 56.98C133.316 56.98 133.456 56.96 133.616 56.92C133.776 56.88 133.936 56.76 134.096 56.58C134.256 56.4 134.416 56.12 134.556 55.74C134.696 55.36 134.836 54.82 134.936 54.12C135.036 53.44 135.136 52.58 135.196 51.52C135.256 50.48 135.296 49.2 135.296 47.68H142.196V58H140.936V48.74H136.516C136.516 50.24 136.476 51.5 136.396 52.54C136.296 53.58 136.176 54.44 136.016 55.14C135.856 55.84 135.676 56.38 135.456 56.78C135.236 57.18 135.016 57.48 134.776 57.66C134.516 57.86 134.256 57.98 133.996 58.04C133.716 58.08 133.436 58.1 133.156 58.1ZM145.925 51.82H149.625C150.625 51.82 151.425 52.08 152.005 52.62C152.585 53.16 152.885 53.9 152.885 54.88C152.885 55.86 152.585 56.62 152.005 57.16C151.425 57.72 150.625 58 149.625 58H144.665V47.68H145.925V51.82ZM149.325 56.94C150.045 56.94 150.605 56.76 151.025 56.42C151.425 56.08 151.625 55.56 151.625 54.88C151.625 54.2 151.425 53.7 151.025 53.36C150.605 53.04 150.045 52.88 149.325 52.88H145.925V56.94H149.325ZM155.825 52.06H161.685V47.68H162.945V58H161.685V53.12H155.825V58H154.565V47.68H155.825V52.06ZM166.567 51.82H169.907C170.907 51.82 171.707 52.08 172.287 52.62C172.867 53.16 173.167 53.9 173.167 54.88C173.167 55.86 172.867 56.62 172.287 57.16C171.707 57.72 170.907 58 169.907 58H165.307V47.68H166.567V51.82ZM176.367 58H175.107V47.68H176.367V58ZM169.607 56.94C170.327 56.94 170.887 56.76 171.307 56.42C171.707 56.08 171.907 55.56 171.907 54.88C171.907 54.2 171.707 53.7 171.307 53.36C170.887 53.04 170.327 52.88 169.607 52.88H166.567V56.94H169.607ZM182.945 46.16C182.105 46.16 181.445 45.94 180.985 45.48C180.525 45.04 180.225 44.4 180.125 43.56H180.905C180.965 44.06 181.185 44.46 181.545 44.76C181.885 45.06 182.365 45.2 182.965 45.2C183.545 45.2 184.005 45.06 184.385 44.76C184.745 44.48 184.985 44.08 185.085 43.56H185.865C185.725 44.4 185.405 45.04 184.925 45.48C184.445 45.94 183.785 46.16 182.945 46.16ZM179.985 56.52L185.685 47.68H187.245V58H185.985V49.16L180.285 58H178.725V47.68H179.985V56.52ZM203.41 58H202.15V48.74H196.43V58H195.17V47.68H203.41V58ZM210.156 58.28C209.376 58.28 208.676 58.14 208.076 57.84C207.456 57.56 206.956 57.18 206.536 56.68C206.116 56.18 205.816 55.6 205.596 54.94C205.376 54.28 205.276 53.58 205.276 52.84C205.276 52.1 205.376 51.4 205.596 50.74C205.816 50.08 206.116 49.5 206.536 49C206.956 48.5 207.456 48.12 208.076 47.82C208.676 47.52 209.376 47.38 210.156 47.38C210.936 47.38 211.636 47.52 212.256 47.82C212.856 48.12 213.356 48.5 213.776 49C214.196 49.5 214.496 50.08 214.716 50.74C214.936 51.4 215.036 52.1 215.036 52.84C215.036 53.58 214.936 54.28 214.716 54.94C214.496 55.6 214.196 56.18 213.776 56.68C213.356 57.18 212.856 57.56 212.256 57.84C211.636 58.14 210.936 58.28 210.156 58.28ZM210.156 57.24C210.756 57.24 211.276 57.12 211.736 56.86C212.196 56.6 212.576 56.28 212.876 55.86C213.176 55.44 213.396 54.98 213.556 54.44C213.696 53.92 213.776 53.38 213.776 52.84C213.776 52.3 213.696 51.76 213.556 51.22C213.396 50.7 213.176 50.24 212.876 49.82C212.576 49.4 212.196 49.08 211.736 48.82C211.276 48.56 210.756 48.44 210.156 48.44C209.556 48.44 209.036 48.56 208.576 48.82C208.116 49.08 207.756 49.4 207.456 49.82C207.156 50.24 206.916 50.7 206.776 51.22C206.616 51.76 206.536 52.3 206.536 52.84C206.536 53.38 206.616 53.92 206.776 54.44C206.916 54.98 207.156 55.44 207.456 55.86C207.756 56.28 208.116 56.6 208.576 56.86C209.036 57.12 209.556 57.24 210.156 57.24ZM217.049 56.94C217.549 56.02 217.909 54.92 218.129 53.66C218.349 52.4 218.469 50.86 218.469 49.04V47.68H225.409V56.94H226.949V61.28H225.689V58H217.089V61.28H215.829V56.94H217.049ZM219.689 48.74V49.46C219.689 51.2 219.569 52.68 219.309 53.92C219.049 55.18 218.729 56.18 218.349 56.94H224.149V48.74H219.689ZM229.015 47.68L231.955 51.6L234.835 47.68H236.415L232.695 52.62L236.715 58H235.115L231.875 53.66L228.695 58H227.135L231.135 52.64L227.435 47.68H229.015ZM242.304 58.28C241.524 58.28 240.824 58.14 240.224 57.84C239.604 57.56 239.104 57.18 238.684 56.68C238.264 56.18 237.964 55.6 237.744 54.94C237.524 54.28 237.424 53.58 237.424 52.84C237.424 52.1 237.524 51.4 237.744 50.74C237.964 50.08 238.264 49.5 238.684 49C239.104 48.5 239.604 48.12 240.224 47.82C240.824 47.52 241.524 47.38 242.304 47.38C243.084 47.38 243.784 47.52 244.404 47.82C245.004 48.12 245.504 48.5 245.924 49C246.344 49.5 246.644 50.08 246.864 50.74C247.084 51.4 247.184 52.1 247.184 52.84C247.184 53.58 247.084 54.28 246.864 54.94C246.644 55.6 246.344 56.18 245.924 56.68C245.504 57.18 245.004 57.56 244.404 57.84C243.784 58.14 243.084 58.28 242.304 58.28ZM242.304 57.24C242.904 57.24 243.424 57.12 243.884 56.86C244.344 56.6 244.724 56.28 245.024 55.86C245.324 55.44 245.544 54.98 245.704 54.44C245.844 53.92 245.924 53.38 245.924 52.84C245.924 52.3 245.844 51.76 245.704 51.22C245.544 50.7 245.324 50.24 245.024 49.82C244.724 49.4 244.344 49.08 243.884 48.82C243.424 48.56 242.904 48.44 242.304 48.44C241.704 48.44 241.184 48.56 240.724 48.82C240.264 49.08 239.904 49.4 239.604 49.82C239.304 50.24 239.064 50.7 238.924 51.22C238.764 51.76 238.684 52.3 238.684 52.84C238.684 53.38 238.764 53.92 238.924 54.44C239.064 54.98 239.304 55.44 239.604 55.86C239.904 56.28 240.264 56.6 240.724 56.86C241.184 57.12 241.704 57.24 242.304 57.24ZM249.197 56.94C249.697 56.02 250.057 54.92 250.277 53.66C250.497 52.4 250.617 50.86 250.617 49.04V47.68H257.557V56.94H259.097V61.28H257.837V58H249.237V61.28H247.977V56.94H249.197ZM251.837 48.74V49.46C251.837 51.2 251.717 52.68 251.457 53.92C251.197 55.18 250.877 56.18 250.497 56.94H256.297V48.74H251.837Z" fill="#202020"/>
</svg>
