<svg width="192" height="31" viewBox="0 0 192 31" fill="none" xmlns="http://www.w3.org/2000/svg">
<path d="M149.861 29.9502L130.571 1.44741L134.007 0L153.297 28.5028L149.861 29.9502ZM170.644 29.9502L151.354 1.44741L154.791 0L174.081 28.5028L170.644 29.9502ZM188.563 29.9502L169.273 1.44741L172.71 0L192 28.5028L188.563 29.9502ZM129.916 23.9697L113.817 0.190859H111.117L88.4926 27.1986L70.6755 0.90663L70.1436 0.174962H67.6275L45.1464 27.0236L27.4519 0.90663L26.9201 0.174962H24.404L0 29.3299L3.47751 30.3797L25.4473 4.13546L43.6122 30.9523H46.2101L68.6708 4.13546L86.8357 30.9523H89.6995L112.242 4.04001L130.489 31H133.496L134.15 30.2206L129.916 23.9379V23.9697Z" fill="#FA4600"/>
</svg>
