<svg width="123" height="28" viewBox="0 0 123 28" fill="none" xmlns="http://www.w3.org/2000/svg">
<path d="M96.0045 27.0518L83.6468 1.30734L85.8484 0L98.2061 25.7445L96.0045 27.0518ZM109.319 27.0518L96.9611 1.30734L99.1627 0L111.52 25.7445L109.319 27.0518ZM120.798 27.0518L108.441 1.30734L110.642 0L123 25.7445L120.798 27.0518ZM83.2275 21.6501L72.9141 0.172389H71.1843L56.6906 24.5664L45.2765 0.818892L44.9358 0.158031H43.3239L28.9219 24.4084L17.5864 0.818892L17.2457 0.158031H15.6338L0 26.4915L2.22778 27.4397L16.3022 3.73526L27.9391 27.9569H29.6033L43.9922 3.73526L55.6291 27.9569H57.4638L71.9051 3.64904L83.5944 28H85.5208L85.9401 27.296L83.2275 21.6213V21.6501Z" fill="white"/>
</svg>
