<svg width="190" height="102" viewBox="0 0 190 102" fill="none" xmlns="http://www.w3.org/2000/svg">
<path d="M105.738 15.4459L110.188 13.3896L132.536 60.827L128.086 62.8833L105.738 15.4459ZM126.344 15.4459L130.794 13.3896L153.142 60.827L148.691 62.8833L126.344 15.4459ZM172.2 2.05626L176.65 0L180.229 7.60338L175.779 9.65964L172.2 2.05626ZM162.139 14.0591L190 14.2025V18.8889L166.976 18.7933V33.8565L189.71 33.9522V38.6385L166.879 38.5429L166.782 57.4318L189.613 57.5274V62.2138L161.945 62.0703L162.139 14.0591ZM88.2765 13.2939L111.349 62.2138H105.98L98.1925 46.0985H76.861L69.1701 62.2138H63.6558L87.0672 13.2939H88.2765ZM87.6477 23.6709L79.1828 41.4121H96.1125L87.6477 23.6709ZM0 62.166L7.11049 13.2461H7.93279L28.055 53.3671L47.9837 13.2461H48.7576L55.8681 62.166H51.0311L46.1456 27.1617L28.6355 62.166H27.3778L9.67413 26.8748L4.78872 62.166H0ZM3.04738 89.5668V90.4754C3.77294 88.4191 5.46589 86.9367 8.12627 86.9367C11.609 86.9367 13.2052 89.1843 13.2052 92.3404V101.378H12.0927V92.5316C12.0927 89.9016 10.9318 87.8931 7.88444 87.8931C5.41754 87.8931 3.82128 89.519 3.28921 91.7665C3.14409 92.436 3.04738 93.1533 3.04738 94.2532V101.378H1.93483V81.82H3.04738V89.6146V89.5668ZM38.6965 93.8706C36.6166 94.4923 34.3432 94.1575 32.3116 95.0661C31.2475 95.5443 30.6186 96.4529 30.6186 97.6484C30.6186 99.5612 32.0214 100.709 34.2948 100.709C37.3422 100.709 39.6156 98.6048 39.6156 95.7834V93.2968C39.277 93.5837 39.1319 93.6793 38.6482 93.8228H38.6965V93.8706ZM42.5178 101.283C42.1309 101.426 41.8406 101.474 41.3569 101.474C40.0993 101.474 39.7123 100.9 39.7123 99.1308V98.4613C38.503 100.757 36.8585 101.857 34.1497 101.857C31.1991 101.857 29.4578 100.422 29.4578 97.9353C29.4578 94.7314 32.1665 93.8228 34.9236 93.6315C38.6482 93.3446 39.0835 93.249 39.4705 92.6751C39.664 92.436 39.664 91.8622 39.664 91.1927C39.664 89.0886 38.2612 87.9409 35.6492 87.9409C33.0372 87.9409 31.5861 89.2321 31.3442 91.7187H30.28C30.4735 88.6582 32.4083 87.0324 35.7459 87.0324C37.584 87.0324 39.0835 87.5584 39.9542 88.5626C40.7765 89.519 40.7765 90.6667 40.7765 91.8144V99.083C40.7765 99.8959 40.7765 100.613 41.7923 100.613C42.0341 100.613 42.1792 100.613 42.5178 100.518V101.283ZM59.3508 101.378H58.2383V87.3193H59.3508V101.378ZM59.3508 84.5935H58.2383V81.82H59.3508V84.5935ZM83.1976 88.3235H82.7622C81.166 88.3235 79.7632 88.993 78.8442 90.2363C77.6833 91.7665 77.6349 93.4881 77.6349 95.3052V101.378H76.5224V87.3193H77.6349V91.0014C78.6991 88.2279 80.3437 87.1758 83.1976 87.1758V88.3235ZM104.19 101.809C99.8371 101.809 97.6604 98.4613 97.6604 94.3966C97.6604 89.8537 100.272 86.8889 104.336 86.8889C107.625 86.8889 109.801 88.6582 110.14 91.6231H109.027C108.737 89.3277 106.948 87.8453 104.384 87.8453C100.998 87.8453 98.8213 90.3798 98.8213 94.3488C98.8213 98.3179 100.95 100.852 104.19 100.852C106.899 100.852 108.834 99.1786 109.173 96.4051H110.285C109.85 99.8003 107.625 101.761 104.239 101.761H104.19V101.809ZM135.051 94.0141C132.971 94.6357 130.698 94.301 128.666 95.2096C127.602 95.6878 126.973 96.5964 126.973 97.7919C126.973 99.7047 128.376 100.852 130.698 100.852C133.745 100.852 136.018 98.7483 136.018 95.9269V93.4402C135.68 93.7272 135.535 93.8228 135.051 93.9662V94.0141ZM138.872 101.426C138.485 101.57 138.195 101.617 137.711 101.617C136.454 101.617 136.067 101.044 136.067 99.2743V98.6048C134.857 100.9 133.213 102 130.504 102C127.553 102 125.812 100.565 125.812 98.0788C125.812 94.8748 128.521 93.9663 131.278 93.775C135.003 93.4881 135.438 93.3924 135.825 92.8186C135.97 92.5795 136.018 92.0056 136.018 91.3362C136.018 89.2321 134.616 88.0844 132.004 88.0844C129.392 88.0844 127.892 89.3755 127.699 91.8622H126.634C126.828 88.8017 128.763 87.1758 132.1 87.1758C133.938 87.1758 135.438 87.7018 136.309 88.7061C137.131 89.6625 137.131 90.8101 137.131 91.9578V99.2264C137.131 100.039 137.131 100.757 138.147 100.757C138.389 100.757 138.534 100.757 138.872 100.661V101.426ZM160.978 88.467H160.542C158.946 88.467 157.543 89.1364 156.624 90.3798C155.463 91.91 155.415 93.6315 155.415 95.4487V101.522H154.302V87.4627H155.367V91.1449C156.431 88.3713 158.075 87.3193 160.929 87.3193V88.467H160.978ZM181.825 88.0366C178.294 88.0366 176.795 90.7145 176.505 93.7271H186.904C186.904 90.8579 185.26 88.0366 181.825 88.0366ZM181.874 101.904C177.956 101.904 175.392 99.0352 175.392 94.5401C175.392 90.045 178.052 86.9845 181.874 86.9845C186.082 86.9845 188.114 90.3797 188.114 94.2532V94.6357H176.553C176.553 97.8875 178.149 100.996 181.874 100.996C184.486 100.996 186.275 99.4177 186.808 96.692H187.92C187.436 99.7525 185.211 101.952 181.825 101.952" fill="white"/>
</svg>
